<?xml version="1.0" encoding="UTF-8"?>
<!--Generator: Apple Native CoreSVG 326-->
<!DOCTYPE svg
PUBLIC "-//W3C//DTD SVG 1.1//EN"
       "http://www.w3.org/Graphics/SVG/1.1/DTD/svg11.dtd">
<svg version="1.1" xmlns="http://www.w3.org/2000/svg" xmlns:xlink="http://www.w3.org/1999/xlink" viewBox="0 0 20.9635 34.5001">
 <g>
  <rect height="34.5001" opacity="0" width="20.9635" x="0" y="0"/>
  <path d="M5.59956 33.9378L20.3353 15.1944C20.5094 15.0156 20.5816 14.8689 20.5816 14.6723C20.5816 14.5664 20.5313 14.3937 20.2355 14.3937L10.624 14.3937L15.7874 0.721194C16.0655 0.0147894 15.4282-0.251007 14.9975 0.281246L0.246369 19.0234C0.0876567 19.2188 0 19.3656 0 19.5455C0 19.6681 0.0503063 19.8253 0.346149 19.8253L9.97306 19.8253L4.79421 33.5121C4.53157 34.2031 5.16891 34.4689 5.59956 33.9378ZM6.11587 32.2819L11.1061 19.0037L1.32499 19.0037L14.6207 2.03174L14.4646 1.95255L9.4755 15.2154L19.2555 15.2154L5.97525 32.1873Z" fill="white" fill-opacity="0.85"/>
 </g>
</svg>
