<?xml version="1.0" encoding="UTF-8"?>
<!--Generator: Apple Native CoreSVG 326-->
<!DOCTYPE svg
PUBLIC "-//W3C//DTD SVG 1.1//EN"
       "http://www.w3.org/Graphics/SVG/1.1/DTD/svg11.dtd">
<svg version="1.1" xmlns="http://www.w3.org/2000/svg" xmlns:xlink="http://www.w3.org/1999/xlink" viewBox="0 0 39.6638 30.769">
 <g>
  <rect height="30.769" opacity="0" width="39.6638" x="0" y="0"/>
  <path d="M31.5134 30.674L36.6443 30.674C38.4004 30.674 39.282 29.784 39.282 27.9446L39.282 2.71519C39.282 0.875735 38.4004 0 36.6443 0L31.5134 0C29.7739 0 28.8781 0.875735 28.8781 2.71519L28.8781 27.9446C28.8781 29.784 29.7739 30.674 31.5134 30.674ZM31.4985 29.8501C30.2985 29.8501 29.6959 29.2177 29.6959 27.9572L29.6959 2.70258C29.6959 1.45746 30.2985 0.808509 31.4985 0.808509L36.6604 0.808509C37.8615 0.808509 38.4642 1.45746 38.4642 2.70258L38.4642 27.9572C38.4642 29.2177 37.8615 29.8501 36.6604 29.8501Z" fill="white" fill-opacity="0.85"/>
  <path d="M17.0673 30.674L22.2136 30.674C23.9542 30.674 24.8346 29.784 24.8346 27.9446L24.8346 7.47021C24.8346 5.6462 23.9542 4.75502 22.2136 4.75502L17.0673 4.75502C15.3266 4.75502 14.4462 5.6462 14.4462 7.47021L14.4462 27.9446C14.4462 29.784 15.3266 30.674 17.0673 30.674ZM17.0523 29.8501C15.8512 29.8501 15.264 29.2177 15.264 27.9572L15.264 7.47304C15.264 6.21248 15.8512 5.57897 17.0523 5.57897L22.2142 5.57897C23.4308 5.57897 24.0168 6.21248 24.0168 7.47304L24.0168 27.9572C24.0168 29.2177 23.4308 29.8501 22.2142 29.8501Z" fill="white" fill-opacity="0.85"/>
  <path d="M2.62106 30.674L7.76622 30.674C9.5069 30.674 10.3884 29.784 10.3884 27.9446L10.3884 12.1314C10.3884 10.3074 9.5069 9.41624 7.76622 9.41624L2.62106 9.41624C0.880384 9.41624 0 10.3074 0 12.1314L0 27.9446C0 29.784 0.880384 30.674 2.62106 30.674ZM2.6204 29.8501C1.405 29.8501 0.817807 29.2177 0.817807 27.9572L0.817807 12.1188C0.817807 10.8725 1.405 10.2402 2.6204 10.2402L7.76688 10.2402C8.98344 10.2402 9.57064 10.8725 9.57064 12.1188L9.57064 27.9572C9.57064 29.2177 8.98344 29.8501 7.76688 29.8501Z" fill="white" fill-opacity="0.85"/>
 </g>
</svg>
