<?xml version="1.0" encoding="UTF-8"?>
<!--Generator: Apple Native CoreSVG 326-->
<!DOCTYPE svg
PUBLIC "-//W3C//DTD SVG 1.1//EN"
       "http://www.w3.org/Graphics/SVG/1.1/DTD/svg11.dtd">
<svg version="1.1" xmlns="http://www.w3.org/2000/svg" xmlns:xlink="http://www.w3.org/1999/xlink" viewBox="0 0 26.8852 35.0213">
 <g>
  <rect height="35.0213" opacity="0" width="26.8852" x="0" y="0"/>
  <path d="M0 30.7514C0 33.5418 1.47837 35.0213 4.26644 35.0213L22.237 35.0213C25.025 35.0213 26.5034 33.5418 26.5034 30.7514L26.5034 4.33169C26.5034 1.54245 25.025 0.0605951 22.237 0.0605951L4.26644 0.0605951C1.47837 0.0605951 0 1.54245 0 4.33169ZM0.820132 30.717L0.820132 4.36605C0.820132 2.07288 2.0088 0.880727 4.30662 0.880727L22.1968 0.880727C24.4946 0.880727 25.6833 2.07288 25.6833 4.36605L25.6833 30.717C25.6833 33.0102 24.4946 34.2012 22.1968 34.2012L4.30662 34.2012C2.0088 34.2012 0.820132 33.0102 0.820132 30.717Z" fill="white" fill-opacity="0.85"/>
  <path d="M4.70556 25.1124C4.13297 25.1124 3.76541 25.4977 3.76541 26.1023L3.76541 29.6622C3.76541 30.2359 4.13297 30.6367 4.70556 30.6367L12.7807 30.6367C13.3355 30.6367 13.6888 30.2359 13.6888 29.6622L13.6888 26.1023C13.6888 25.4977 13.3355 25.1124 12.7807 25.1124Z" fill="white" fill-opacity="0.85"/>
  <path d="M4.70556 18.2031C4.13297 18.2031 3.76541 18.5718 3.76541 19.1444L3.76541 22.7221C3.76541 23.3112 4.13297 23.7108 4.70556 23.7108L18.7676 23.7108C19.3236 23.7108 19.6757 23.3112 19.6757 22.7221L19.6757 19.1444C19.6757 18.5718 19.3236 18.2031 18.7676 18.2031Z" fill="white" fill-opacity="0.85"/>
  <path d="M4.70556 11.2618C4.13297 11.2618 3.76541 11.6472 3.76541 12.2352L3.76541 15.8117C3.76541 16.3842 4.13297 16.785 4.70556 16.785L21.8002 16.785C22.3716 16.785 22.7392 16.3842 22.7392 15.7796L22.7392 12.2352C22.7392 11.6472 22.3716 11.2618 21.8002 11.2618Z" fill="white" fill-opacity="0.85"/>
  <path d="M4.70556 4.32057C4.13297 4.32057 3.76541 4.70589 3.76541 5.31052L3.76541 8.87038C3.76541 9.44414 4.13297 9.8449 4.70556 9.8449L15.7315 9.8449C16.2875 9.8449 16.6396 9.44414 16.6396 8.87038L16.6396 5.31052C16.6396 4.70589 16.2875 4.32057 15.7315 4.32057Z" fill="white" fill-opacity="0.85"/>
 </g>
</svg>
