<?xml version="1.0" encoding="UTF-8"?>
<!--Generator: Apple Native CoreSVG 326-->
<!DOCTYPE svg
PUBLIC "-//W3C//DTD SVG 1.1//EN"
       "http://www.w3.org/Graphics/SVG/1.1/DTD/svg11.dtd">
<svg version="1.1" xmlns="http://www.w3.org/2000/svg" xmlns:xlink="http://www.w3.org/1999/xlink" viewBox="0 0 36.2432 32.1865">
 <g>
  <rect height="32.1865" opacity="0" width="36.2432" x="0" y="0"/>
  <path d="M6.71102 32.1556C8.39641 32.1556 11.8051 30.8705 14.9281 29.0808C25.1408 30.477 35.8614 24.315 35.8614 14.6122C35.8614 6.5704 27.9419 0 17.9307 0C7.91945 0 0 6.5704 0 14.6122C0 19.934 3.45545 24.5952 8.6861 27.2043C7.93903 28.556 6.82241 29.8048 6.15254 30.599C5.39617 31.4832 5.63407 32.1556 6.71102 32.1556ZM6.84849 31.3296C6.71568 31.3331 6.69675 31.2644 6.81064 31.1327C7.50874 30.296 8.89862 28.7702 9.60203 27.2599C9.74265 26.9525 9.65731 26.7137 9.39766 26.5862C4.21565 24.1933 0.856822 19.7539 0.856822 14.6122C0.856822 6.97184 8.45751 0.84022 17.9307 0.84022C27.4205 0.84022 35.0057 6.97184 35.0057 14.6122C35.0057 22.2514 27.4205 28.4139 17.9307 28.4139C16.9811 28.4139 16.0959 28.3355 15.1694 28.2417C14.9353 28.2263 14.6202 28.2569 14.3907 28.3844C11.4224 30.0008 8.22028 31.3484 6.84849 31.3296Z" fill="white" fill-opacity="0.85"/>
  <path d="M25.4057 16.4741C26.4559 16.4741 27.3034 15.6266 27.3034 14.5609C27.3034 13.5107 26.4559 12.6632 25.4057 12.6632C24.3555 12.6632 23.508 13.5107 23.508 14.5609C23.508 15.6266 24.3555 16.4741 25.4057 16.4741Z" fill="white" fill-opacity="0.85"/>
  <path d="M17.9307 16.4741C18.9809 16.4741 19.8284 15.6266 19.8284 14.5609C19.8284 13.5107 18.9809 12.6632 17.9307 12.6632C16.8805 12.6632 16.033 13.5107 16.033 14.5609C16.033 15.6266 16.8805 16.4741 17.9307 16.4741Z" fill="white" fill-opacity="0.85"/>
  <path d="M10.4568 16.4741C11.5059 16.4741 12.3534 15.6266 12.3534 14.5609C12.3534 13.5107 11.5047 12.6632 10.4568 12.6632C9.40661 12.6632 8.5591 13.5107 8.5591 14.5609C8.5591 15.6266 9.40661 16.4741 10.4568 16.4741Z" fill="white" fill-opacity="0.85"/>
 </g>
</svg>
