<?xml version="1.0" encoding="UTF-8"?>
<!--Generator: Apple Native CoreSVG 326-->
<!DOCTYPE svg
PUBLIC "-//W3C//DTD SVG 1.1//EN"
       "http://www.w3.org/Graphics/SVG/1.1/DTD/svg11.dtd">
<svg version="1.1" xmlns="http://www.w3.org/2000/svg" xmlns:xlink="http://www.w3.org/1999/xlink" viewBox="0 0 34.1939 34.3788">
 <g>
  <rect height="34.3788" opacity="0" width="34.1939" x="0" y="0"/>
  <path d="M4.91845 7.45991C2.93484 10.1989 1.82376 13.7916 1.82376 17.9628C1.82376 19.2077 1.91976 20.4825 2.11224 21.7626C2.38239 21.3337 2.82627 21.0057 3.41652 20.8158C4.83397 20.376 5.90394 20.9174 6.34488 22.2696L8.95049 30.294C9.40571 31.6782 8.81917 32.798 7.48009 33.2223C6.18904 33.6277 5.17903 33.2006 4.6848 32.0699C2.36649 27.9591 1.00861 22.7487 1.00861 17.9628C1.00861 13.4974 2.17565 9.6953 4.27763 6.81911ZM29.2737 31.8142L29.1548 32.0412C28.6647 33.1931 27.6473 33.6312 26.3296 33.2223C25.0072 32.798 24.4195 31.6794 24.8604 30.294L25.5695 28.1102ZM32.8023 17.9628C32.8023 21.4784 32.0696 25.2231 30.7605 28.5895L26.7239 24.555L27.466 22.2696C27.9069 20.9174 28.9924 20.376 30.3932 20.8158C30.9857 21.0063 31.4307 21.3354 31.7007 21.766C31.892 20.4848 31.9871 19.2089 31.9871 17.9628C31.9871 8.2086 25.9257 1.61828 16.9054 1.61828C13.0324 1.61828 9.70132 2.83712 7.16755 5.00863L6.53041 4.37181C9.20263 2.0786 12.7428 0.803132 16.9054 0.803132C26.5252 0.803132 32.8023 7.59483 32.8023 17.9628Z" fill="white" fill-opacity="0.85"/>
  <path d="M32.2262 33.0012C32.3857 33.1596 32.6434 33.1596 32.8161 33.0012C33.0053 32.8108 32.9756 32.5697 32.8161 32.4114L2.50939 2.10237C2.36645 1.97371 2.10763 1.92855 1.91837 2.10237C1.76115 2.27503 1.75999 2.53385 1.91837 2.70767Z" fill="white" fill-opacity="0.85"/>
 </g>
</svg>
