<?xml version="1.0" encoding="UTF-8"?>
<!--Generator: Apple Native CoreSVG 326-->
<!DOCTYPE svg
PUBLIC "-//W3C//DTD SVG 1.1//EN"
       "http://www.w3.org/Graphics/SVG/1.1/DTD/svg11.dtd">
<svg version="1.1" xmlns="http://www.w3.org/2000/svg" xmlns:xlink="http://www.w3.org/1999/xlink" viewBox="0 0 32.1755 32.7725">
 <g>
  <rect height="32.7725" opacity="0" width="32.1755" x="0" y="0"/>
  <path d="M0 17.1597C0 22.0178 1.39802 27.3134 3.77669 31.4576C3.8675 31.662 4.1074 31.7068 4.34497 31.5852C4.5173 31.4812 4.56213 31.2568 4.40839 30.986C2.12203 26.8117 0.815153 21.7799 0.815153 17.1597C0.815153 7.40547 6.87538 0.815153 15.8968 0.815153C24.9171 0.815153 30.9785 7.40547 30.9785 17.1597C30.9785 21.7799 29.6705 26.8117 27.3687 30.986C27.2304 31.2568 27.2752 31.4812 27.4475 31.5852C27.6697 31.7068 27.9262 31.662 28.0158 31.4576C30.3945 27.3134 31.7937 22.0178 31.7937 17.1597C31.7937 6.7917 25.5012-3.55271e-15 15.8968-3.55271e-15C6.29133-3.55271e-15 0 6.7917 0 17.1597ZM3.54428 30.9654C3.9995 32.3188 5.07063 32.859 6.47148 32.4192C7.79396 31.9949 8.38166 30.8751 7.94072 29.4909L5.33511 21.4665C4.89533 20.1143 3.82419 19.5729 2.40791 20.0127C1.08543 20.4382 0.497729 21.5568 0.938667 22.9422ZM28.2328 30.9654L30.8538 22.9422C31.2948 21.5556 30.7082 20.4382 29.3846 20.0127C27.9683 19.5729 26.8983 20.1143 26.4574 21.4665L23.8518 29.4909C23.4108 30.8763 23.9985 31.9949 25.321 32.4192C26.723 32.859 27.793 32.3188 28.2328 30.9654Z" fill="white" fill-opacity="0.85"/>
 </g>
</svg>
