<?xml version="1.0" encoding="UTF-8"?>
<!--Generator: Apple Native CoreSVG 326-->
<!DOCTYPE svg
PUBLIC "-//W3C//DTD SVG 1.1//EN"
       "http://www.w3.org/Graphics/SVG/1.1/DTD/svg11.dtd">
<svg version="1.1" xmlns="http://www.w3.org/2000/svg" xmlns:xlink="http://www.w3.org/1999/xlink" viewBox="0 0 40.5777 24.8575">
 <g>
  <rect height="24.8575" opacity="0" width="40.5777" x="0" y="0"/>
  <path d="M4.25565 24.7946L35.9248 24.7946C38.714 24.7946 40.1959 23.2842 40.1959 20.5436L40.1959 4.24984C40.1959 1.51041 38.714 0 35.9248 0L4.25565 0C1.47953 0 0 1.47837 0 4.24984L0 20.5436C0 23.3151 1.47953 24.7946 4.25565 24.7946ZM4.30429 23.9899C2.01113 23.9899 0.820132 22.8001 0.820132 20.5023L0.820132 4.29118C0.820132 1.99336 2.01113 0.804692 4.30429 0.804692L35.8904 0.804692C38.1052 0.804692 39.3757 1.99336 39.3757 4.29118L39.3757 20.5023C39.3757 22.8001 38.1052 23.9899 35.8904 23.9899ZM5.99915 8.24351L7.18682 8.24351C7.63623 8.24351 7.8567 8.00761 7.8567 7.55936L7.8567 6.38712C7.8567 5.93772 7.63623 5.70181 7.18682 5.70181L5.99915 5.70181C5.56634 5.70181 5.33044 5.93772 5.33044 6.38712L5.33044 7.55936C5.33044 8.00761 5.56634 8.24351 5.99915 8.24351ZM11.3448 8.24351L12.5325 8.24351C12.9653 8.24351 13.2012 8.00761 13.2012 7.55936L13.2012 6.38712C13.2012 5.93772 12.9653 5.70181 12.5325 5.70181L11.3448 5.70181C10.8954 5.70181 10.6595 5.93772 10.6595 6.38712L10.6595 7.55936C10.6595 8.00761 10.8954 8.24351 11.3448 8.24351ZM16.6906 8.24351L17.8616 8.24351C18.311 8.24351 18.5469 8.00761 18.5469 7.55936L18.5469 6.38712C18.5469 5.93772 18.311 5.70181 17.8616 5.70181L16.6906 5.70181C16.2411 5.70181 16.0052 5.93772 16.0052 6.38712L16.0052 7.55936C16.0052 8.00761 16.2411 8.24351 16.6906 8.24351ZM22.0197 8.24351L23.2073 8.24351C23.6567 8.24351 23.8772 8.00761 23.8772 7.55936L23.8772 6.38712C23.8772 5.93772 23.6567 5.70181 23.2073 5.70181L22.0197 5.70181C21.5869 5.70181 21.3509 5.93772 21.3509 6.38712L21.3509 7.55936C21.3509 8.00761 21.5869 8.24351 22.0197 8.24351ZM27.3654 8.24351L28.5376 8.24351C28.9858 8.24351 29.2217 8.00761 29.2217 7.55936L29.2217 6.38712C29.2217 5.93772 28.9858 5.70181 28.5376 5.70181L27.3654 5.70181C26.916 5.70181 26.68 5.93772 26.68 6.38712L26.68 7.55936C26.68 8.00761 26.916 8.24351 27.3654 8.24351ZM32.7111 8.24351L33.8821 8.24351C34.3315 8.24351 34.5675 8.00761 34.5675 7.55936L34.5675 6.38712C34.5675 5.93772 34.3315 5.70181 33.8821 5.70181L32.7111 5.70181C32.2617 5.70181 32.0257 5.93772 32.0257 6.38712L32.0257 7.55936C32.0257 8.00761 32.2617 8.24351 32.7111 8.24351ZM5.99915 13.5738L7.18682 13.5738C7.63623 13.5738 7.8567 13.3379 7.8567 12.9039L7.8567 11.7174C7.8567 11.2834 7.63623 11.0475 7.18682 11.0475L5.99915 11.0475C5.56634 11.0475 5.33044 11.2834 5.33044 11.7174L5.33044 12.9039C5.33044 13.3379 5.56634 13.5738 5.99915 13.5738ZM11.3448 13.5738L12.5325 13.5738C12.9653 13.5738 13.2012 13.3379 13.2012 12.9039L13.2012 11.7174C13.2012 11.2834 12.9653 11.0475 12.5325 11.0475L11.3448 11.0475C10.8954 11.0475 10.6595 11.2834 10.6595 11.7174L10.6595 12.9039C10.6595 13.3379 10.8954 13.5738 11.3448 13.5738ZM16.6906 13.5738L17.8616 13.5738C18.311 13.5738 18.5469 13.3379 18.5469 12.9039L18.5469 11.7174C18.5469 11.2834 18.311 11.0475 17.8616 11.0475L16.6906 11.0475C16.2411 11.0475 16.0052 11.2834 16.0052 11.7174L16.0052 12.9039C16.0052 13.3379 16.2411 13.5738 16.6906 13.5738ZM22.0197 13.5738L23.2073 13.5738C23.6567 13.5738 23.8772 13.3379 23.8772 12.9039L23.8772 11.7174C23.8772 11.2834 23.6567 11.0475 23.2073 11.0475L22.0197 11.0475C21.5869 11.0475 21.3509 11.2834 21.3509 11.7174L21.3509 12.9039C21.3509 13.3379 21.5869 13.5738 22.0197 13.5738ZM27.3654 13.5738L28.5376 13.5738C28.9858 13.5738 29.2217 13.3379 29.2217 12.9039L29.2217 11.7174C29.2217 11.2834 28.9858 11.0475 28.5376 11.0475L27.3654 11.0475C26.916 11.0475 26.68 11.2834 26.68 11.7174L26.68 12.9039C26.68 13.3379 26.916 13.5738 27.3654 13.5738ZM32.7111 13.5738L33.8821 13.5738C34.3315 13.5738 34.5675 13.3379 34.5675 12.9039L34.5675 11.7174C34.5675 11.2834 34.3315 11.0475 33.8821 11.0475L32.7111 11.0475C32.2617 11.0475 32.0257 11.2834 32.0257 11.7174L32.0257 12.9039C32.0257 13.3379 32.2617 13.5738 32.7111 13.5738ZM5.99915 18.9195L7.18682 18.9195C7.63623 18.9195 7.8567 18.6836 7.8567 18.2342L7.8567 17.0619C7.8567 16.6137 7.63623 16.3778 7.18682 16.3778L5.99915 16.3778C5.56634 16.3778 5.33044 16.6137 5.33044 17.0619L5.33044 18.2342C5.33044 18.6836 5.56634 18.9195 5.99915 18.9195ZM11.341 18.9195L28.5414 18.9195C28.9824 18.9195 29.2217 18.6801 29.2217 18.238L29.2217 17.0581C29.2217 16.6172 28.9824 16.3778 28.5414 16.3778L11.341 16.3778C10.8989 16.3778 10.6595 16.6172 10.6595 17.0581L10.6595 18.238C10.6595 18.6801 10.8989 18.9195 11.341 18.9195ZM32.7111 18.9195L33.8821 18.9195C34.3315 18.9195 34.5675 18.6836 34.5675 18.2342L34.5675 17.0619C34.5675 16.6137 34.3315 16.3778 33.8821 16.3778L32.7111 16.3778C32.2617 16.3778 32.0257 16.6137 32.0257 17.0619L32.0257 18.2342C32.0257 18.6836 32.2617 18.9195 32.7111 18.9195Z" fill="white" fill-opacity="0.85"/>
 </g>
</svg>
