<?xml version="1.0" encoding="UTF-8"?>
<!--Generator: Apple Native CoreSVG 326-->
<!DOCTYPE svg
PUBLIC "-//W3C//DTD SVG 1.1//EN"
       "http://www.w3.org/Graphics/SVG/1.1/DTD/svg11.dtd">
<svg version="1.1" xmlns="http://www.w3.org/2000/svg" xmlns:xlink="http://www.w3.org/1999/xlink" viewBox="0 0 44.1693 24.481">
 <g>
  <rect height="24.481" opacity="0" width="44.1693" x="0" y="0"/>
  <path d="M5.46725 22.3942L5.46725 3.20361C5.46725 1.63161 6.24553 0.868774 7.81753 0.868774L35.97 0.868774C37.542 0.868774 38.3357 1.63161 38.3357 3.20361L38.3357 22.3942Z" fill="white" fill-opacity="0.2125"/>
  <path d="M0 23.4376C0 24.0358 0.414378 24.481 1.02681 24.481L42.7607 24.481C43.3731 24.481 43.7875 24.0358 43.7875 23.4376C43.7875 22.824 43.3731 22.3942 42.7607 22.3942L39.1404 22.3942L39.1404 3.18219C39.1404 1.105 38.0805 0.0486425 36.0199 0.0486425L7.76755 0.0486425C5.69966 0.0486425 4.64712 1.105 4.64712 3.18219L4.64712 22.3942L1.02681 22.3942C0.414378 22.3942 0 22.824 0 23.4376ZM5.46725 22.3942L5.46725 3.20361C5.46725 1.63161 6.24553 0.868774 7.81753 0.868774L35.97 0.868774C37.542 0.868774 38.3357 1.63161 38.3357 3.20361L38.3357 22.3942Z" fill="white" fill-opacity="0.85"/>
 </g>
</svg>
