<?xml version="1.0" encoding="UTF-8"?>
<!--Generator: Apple Native CoreSVG 326-->
<!DOCTYPE svg
PUBLIC "-//W3C//DTD SVG 1.1//EN"
       "http://www.w3.org/Graphics/SVG/1.1/DTD/svg11.dtd">
<svg version="1.1" xmlns="http://www.w3.org/2000/svg" xmlns:xlink="http://www.w3.org/1999/xlink" viewBox="0 0 22.6724 32.3691">
 <g>
  <rect height="32.3691" opacity="0" width="22.6724" x="0" y="0"/>
  <path d="M3.10234 31.5058L19.1882 31.5058C20.9957 31.5058 22.2906 30.1468 22.2906 28.2339L22.2906 15.5449C22.2906 13.6178 20.9957 12.2742 19.1882 12.2742L3.10234 12.2742C1.29492 12.2742 0 13.6178 0 15.5449L0 28.2339C0 30.1468 1.29492 31.5058 3.10234 31.5058ZM3.01551 30.6818C1.76127 30.6818 0.852173 29.6778 0.852173 28.2776L0.852173 15.5012C0.852173 14.0856 1.76127 13.0827 3.01551 13.0827L19.2751 13.0827C20.5305 13.0827 21.423 14.0856 21.423 15.5012L21.423 28.2776C21.423 29.6778 20.5305 30.6818 19.2751 30.6818ZM3.09055 12.6262L3.95467 12.6262L3.95467 8.65257C3.95467 4.03551 6.81279 0.808509 11.137 0.808509C15.4458 0.808509 18.3371 4.03551 18.3371 8.65257L18.3371 12.6262L19.1846 12.6262L19.1846 8.58434C19.1846 3.54642 15.9652 0 11.137 0C6.32537 0 3.09055 3.54642 3.09055 8.58434Z" fill="white" fill-opacity="0.85"/>
 </g>
</svg>
