<?xml version="1.0" encoding="UTF-8"?>
<!--Generator: Apple Native CoreSVG 326-->
<!DOCTYPE svg
PUBLIC "-//W3C//DTD SVG 1.1//EN"
       "http://www.w3.org/Graphics/SVG/1.1/DTD/svg11.dtd">
<svg version="1.1" xmlns="http://www.w3.org/2000/svg" xmlns:xlink="http://www.w3.org/1999/xlink" viewBox="0 0 21.4368 37.222">
 <g>
  <rect height="37.222" opacity="0" width="21.4368" x="0" y="0"/>
  <path d="M0 17.378C0 23.1447 3.96014 27.3396 10.1155 27.5158L10.1155 33.3602L3.10716 33.3602C2.88851 33.3602 2.71004 33.5386 2.71004 33.7727C2.71004 33.9914 2.88851 34.1841 3.10716 34.1841L17.9478 34.1841C18.1664 34.1841 18.3603 33.9914 18.3603 33.7727C18.3603 33.5386 18.1664 33.3602 17.9478 33.3602L10.9395 33.3602L10.9395 27.5158C17.096 27.3396 21.055 23.1447 21.055 17.378L21.055 14.3476C21.055 14.1289 20.8776 13.9362 20.6436 13.9362C20.4249 13.9362 20.2464 14.1289 20.2464 14.3476L20.2464 17.371C20.2464 22.8006 16.4374 26.6915 10.5281 26.6915C4.61757 26.6915 0.823949 22.8006 0.823949 17.371L0.823949 14.3476C0.823949 14.1289 0.631202 13.9362 0.411393 13.9362C0.177308 13.9362 0 14.1289 0 14.3476ZM5.50408 16.6105C5.50408 19.7032 7.43618 22.0993 10.5281 22.0993C13.6188 22.0993 15.5509 19.7032 15.5509 16.6105L15.5509 5.48882C15.5509 2.39494 13.6188 0 10.5281 0C7.43618 0 5.50408 2.39494 5.50408 5.48882ZM6.31259 16.6105L6.31259 5.48882C6.31259 2.86195 7.909 0.775306 10.5281 0.775306C13.1471 0.775306 14.7424 2.86195 14.7424 5.48882L14.7424 16.6105C14.7424 19.2374 13.1471 21.324 10.5281 21.324C7.909 21.324 6.31259 19.2374 6.31259 16.6105Z" fill="white" fill-opacity="0.85"/>
 </g>
</svg>
