<?xml version="1.0" encoding="UTF-8"?>
<!--Generator: Apple Native CoreSVG 326-->
<!DOCTYPE svg
PUBLIC "-//W3C//DTD SVG 1.1//EN"
       "http://www.w3.org/Graphics/SVG/1.1/DTD/svg11.dtd">
<svg version="1.1" xmlns="http://www.w3.org/2000/svg" xmlns:xlink="http://www.w3.org/1999/xlink" viewBox="0 0 27.8708 37.222">
 <g>
  <rect height="37.222" opacity="0" width="27.8708" x="0" y="0"/>
  <path d="M4.03379 14.3476L4.03379 17.371C4.03379 22.8006 7.82742 26.6915 13.7522 26.6915C16.2295 26.6915 18.3352 26.0077 19.9387 24.8062L20.5356 25.4026C18.8721 26.6838 16.6995 27.443 14.1493 27.5158L14.1493 33.3602L21.1576 33.3602C21.3917 33.3602 21.569 33.5386 21.569 33.7727C21.569 33.9914 21.3917 34.1841 21.1576 34.1841L6.33128 34.1841C6.11263 34.1841 5.91989 33.9914 5.91989 33.7727C5.91989 33.5386 6.11263 33.3602 6.33128 33.3602L13.3408 33.3602L13.3408 27.5158C7.16882 27.3396 3.22528 23.1447 3.22528 17.378L3.22528 14.3476C3.22528 14.1289 3.40259 13.9362 3.62124 13.9362C3.85532 13.9362 4.03379 14.1289 4.03379 14.3476ZM24.2802 14.3476L24.2802 17.378C24.2802 19.4851 23.7515 21.3824 22.7743 22.9467L22.1622 22.3355C23.0051 20.9325 23.4563 19.2432 23.4563 17.371L23.4563 14.3476C23.4563 14.1289 23.649 13.9362 23.8677 13.9362C24.0863 13.9362 24.2802 14.1289 24.2802 14.3476ZM9.53672 14.4124L9.53672 16.6105C9.53672 19.2374 11.1331 21.324 13.7522 21.324C14.5684 21.324 15.2856 21.119 15.8855 20.7562L16.4608 21.331C15.7123 21.8228 14.7974 22.0993 13.7522 22.0993C10.6615 22.0993 8.72821 19.7032 8.72821 16.6105L8.72821 13.6045ZM18.7762 5.48882L18.7762 16.6105C18.7762 17.3337 18.6697 18.0187 18.4632 18.6416L17.7967 17.976C17.8997 17.5453 17.9522 17.0868 17.9522 16.6105L17.9522 5.48882C17.9522 2.86195 16.3558 0.775306 13.7522 0.775306C11.1331 0.775306 9.53672 2.86195 9.53672 5.48882L9.53672 9.72741L8.72821 8.92002L8.72821 5.48882C8.72821 2.39494 10.6615 0 13.7522 0C16.8286 0 18.7762 2.39494 18.7762 5.48882Z" fill="white" fill-opacity="0.85"/>
  <path d="M25.8926 29.0049C26.051 29.1633 26.3086 29.1633 26.4824 29.0049C26.6705 28.8145 26.6408 28.5735 26.4824 28.4151L2.46726 4.40107C2.32432 4.25929 2.05006 4.22724 1.8608 4.40107C1.70358 4.57489 1.70358 4.83371 1.8608 5.00637Z" fill="white" fill-opacity="0.85"/>
 </g>
</svg>
