<?xml version="1.0" encoding="UTF-8"?>
<!--Generator: Apple Native CoreSVG 326-->
<!DOCTYPE svg
PUBLIC "-//W3C//DTD SVG 1.1//EN"
       "http://www.w3.org/Graphics/SVG/1.1/DTD/svg11.dtd">
<svg version="1.1" xmlns="http://www.w3.org/2000/svg" xmlns:xlink="http://www.w3.org/1999/xlink" viewBox="0 0 32.5661 34.3583">
 <g>
  <rect height="34.3583" opacity="0" width="32.5661" x="0" y="0"/>
  <path d="M16.0844 33.2553C24.9834 33.2553 32.1843 26.0543 32.1843 17.1708C32.1843 11.4616 29.3066 7.22351 26.3186 4.75054C25.8304 4.34762 25.3273 4.99891 25.8002 5.38756C29.2709 8.25531 31.3691 12.4349 31.3691 17.1708C31.3691 25.6066 24.5356 32.4401 16.0844 32.4401C7.64868 32.4401 0.815153 25.6066 0.815153 17.1708C0.815153 12.4326 2.91458 8.25415 6.38414 5.38639C6.84268 4.99658 6.34081 4.3511 5.85138 4.7517C2.87655 7.22003 0 11.4566 0 17.1708C0 26.0543 7.20093 33.2553 16.0844 33.2553ZM16.0844 16.7887C16.3101 16.7887 16.5028 16.5936 16.5028 16.3811L16.5028 0.407576C16.5028 0.17847 16.3101 0 16.0844 0C15.8588 0 15.6827 0.17847 15.6827 0.407576L15.6827 16.3811C15.6827 16.5936 15.8588 16.7887 16.0844 16.7887Z" fill="white" fill-opacity="0.85"/>
 </g>
</svg>
