<?xml version="1.0" encoding="UTF-8"?>
<!--Generator: Apple Native CoreSVG 326-->
<!DOCTYPE svg
PUBLIC "-//W3C//DTD SVG 1.1//EN"
       "http://www.w3.org/Graphics/SVG/1.1/DTD/svg11.dtd">
<svg version="1.1" xmlns="http://www.w3.org/2000/svg" xmlns:xlink="http://www.w3.org/1999/xlink" viewBox="0 0 28.2011 27.4776">
 <g>
  <rect height="27.4776" opacity="0" width="28.2011" x="0" y="0"/>
  <path d="M25.0662 20.4951C25.2744 20.6454 25.4988 20.6064 25.6383 20.4221C26.9012 18.7916 27.8193 16.5033 27.8193 13.7317C27.8193 10.9446 26.9012 8.65739 25.6383 7.02579C25.4988 6.85695 25.2744 6.80133 25.0662 6.95274C24.8796 7.09336 24.8417 7.33674 25.0013 7.56966C26.3656 9.43817 27.0061 11.2655 27.0061 13.7317C27.0061 16.1978 26.3644 18.024 25.0013 19.8937C24.8429 20.1123 24.8796 20.3534 25.0662 20.4951Z" fill="white" fill-opacity="0.85"/>
  <path d="M2.01146 19.4683L7.25472 19.4683C7.55853 19.4683 7.73766 19.5645 7.93107 19.7258L16.0359 26.9269C16.3222 27.2085 16.706 27.4479 17.1466 27.4479C17.7934 27.4479 18.1271 26.9609 18.1271 26.3605L18.1271 1.09438C18.1271 0.4939 17.7934 0 17.1443 0C16.7037 0 16.3434 0.272598 16.0359 0.527935L7.93107 7.94053C7.73766 8.11733 7.55853 8.1517 7.25472 8.1517L2.01146 8.1517C0.633685 8.1517 0 8.84946 0 10.2068L0 17.4607C0 18.8489 0.650287 19.4683 2.01146 19.4683ZM2.00415 18.6811C1.11199 18.6811 0.814321 18.3525 0.814321 17.4604L0.814321 10.2071C0.814321 9.29838 1.11199 8.96984 2.00415 8.96984L7.22402 8.96984C7.74829 8.96984 8.09576 8.90227 8.49304 8.52276L16.5689 1.14071C16.7136 1.01139 16.8121 0.884385 17.0055 0.884385C17.1834 0.884385 17.3139 0.982832 17.3139 1.194L17.3139 26.2064C17.3139 26.4484 17.1834 26.5481 17.0364 26.5481C16.907 26.5481 16.792 26.5137 16.5843 26.3226L8.49304 19.1282C8.1112 18.7807 7.74829 18.6811 7.22402 18.6811Z" fill="white" fill-opacity="0.85"/>
 </g>
</svg>
