<?xml version="1.0" encoding="UTF-8"?>
<!--Generator: Apple Native CoreSVG 326-->
<!DOCTYPE svg
PUBLIC "-//W3C//DTD SVG 1.1//EN"
       "http://www.w3.org/Graphics/SVG/1.1/DTD/svg11.dtd">
<svg version="1.1" xmlns="http://www.w3.org/2000/svg" xmlns:xlink="http://www.w3.org/1999/xlink" viewBox="0 0 34.7192 27.4776">
 <g>
  <rect height="27.4776" opacity="0" width="34.7192" x="0" y="0"/>
  <path d="M30.2218 24.9196C30.4347 25.0567 30.658 25.0154 30.7974 24.8323C32.9379 22.0957 34.3374 17.9546 34.3374 13.7305C34.3374 9.50639 32.939 5.34754 30.7974 2.6287C30.658 2.44558 30.4347 2.40424 30.2218 2.54137C30.0244 2.69394 30.002 2.90296 30.1747 3.13588C32.3394 6.00131 33.5242 9.71574 33.5242 13.7305C33.5242 17.7452 32.337 21.4574 30.1747 24.3251C30.0032 24.5426 30.0244 24.767 30.2218 24.9196Z" fill="white" fill-opacity="0.85"/>
  <path d="M25.0674 20.5094C25.2756 20.6442 25.4846 20.6052 25.6395 20.4209C26.9023 18.7905 27.8204 16.5021 27.8204 13.7305C27.8204 10.9434 26.9023 8.65623 25.6395 7.04007C25.4846 6.85578 25.2756 6.81561 25.0674 6.95158C24.8808 7.09219 24.8429 7.33558 25.0025 7.5685C26.3668 9.437 27.0073 11.2643 27.0073 13.7305C27.0073 16.1967 26.3656 18.0228 25.0025 19.8925C24.8441 20.1111 24.8808 20.3676 25.0674 20.5094Z" fill="white" fill-opacity="0.85"/>
  <path d="M2.01146 19.4683L7.25472 19.4683C7.55853 19.4683 7.73766 19.5645 7.93107 19.7258L16.0359 26.9269C16.3233 27.2085 16.706 27.4479 17.1478 27.4479C17.7934 27.4479 18.1283 26.9609 18.1283 26.3605L18.1283 1.09438C18.1283 0.4939 17.7934 0 17.1454 0C16.7037 0 16.3434 0.272598 16.0359 0.527935L7.93107 7.94053C7.73766 8.11733 7.55853 8.1517 7.25472 8.1517L2.01146 8.1517C0.633685 8.1517 0 8.84946 0 10.2068L0 17.4607C0 18.8489 0.650287 19.4683 2.01146 19.4683ZM2.00415 18.6811C1.11199 18.6811 0.814321 18.3525 0.814321 17.4604L0.814321 10.2071C0.814321 9.29838 1.11199 8.96984 2.00415 8.96984L7.22402 8.96984C7.74829 8.96984 8.09576 8.90227 8.49304 8.52276L16.5689 1.14071C16.7136 1.01139 16.8121 0.884385 17.0055 0.884385C17.1834 0.884385 17.3139 0.982832 17.3139 1.194L17.3139 26.2064C17.3139 26.4484 17.1834 26.5481 17.0364 26.5481C16.907 26.5481 16.792 26.5137 16.5843 26.3226L8.49304 19.1282C8.1112 18.7807 7.74829 18.6811 7.22402 18.6811Z" fill="white" fill-opacity="0.85"/>
 </g>
</svg>
