<?xml version="1.0" encoding="UTF-8"?>
<!--Generator: Apple Native CoreSVG 326-->
<!DOCTYPE svg
PUBLIC "-//W3C//DTD SVG 1.1//EN"
       "http://www.w3.org/Graphics/SVG/1.1/DTD/svg11.dtd">
<svg version="1.1" xmlns="http://www.w3.org/2000/svg" xmlns:xlink="http://www.w3.org/1999/xlink" viewBox="0 0 41.2813 31.45">
 <g>
  <rect height="31.45" opacity="0" width="41.2813" x="0" y="0"/>
  <path d="M35.5211 31.3516C35.7304 31.4887 35.9726 31.4307 36.0966 31.2299C38.7394 26.9062 40.8995 22.2718 40.8995 15.7167C40.8995 9.16042 38.736 4.52841 36.0966 0.203537C35.9726 0.00149218 35.7304-0.0707252 35.5211 0.0818452C35.3379 0.204699 35.3012 0.460035 35.4407 0.692959C37.9985 4.89614 40.0886 9.32228 40.0886 15.7167C40.0886 22.11 37.9985 26.5384 35.4407 30.7404C35.3012 30.9579 35.3379 31.2287 35.5211 31.3516Z" fill="white" fill-opacity="0.85"/>
  <path d="M30.2218 26.9058C30.4347 27.043 30.658 27.0016 30.7974 26.8185C32.9379 24.0819 34.3374 19.9408 34.3374 15.7167C34.3374 11.4926 32.939 7.33374 30.7974 4.6149C30.658 4.43178 30.4347 4.39045 30.2218 4.52758C30.0244 4.68015 30.002 4.88917 30.1747 5.12209C32.3394 7.98752 33.5242 11.7019 33.5242 15.7167C33.5242 19.7315 32.337 23.4436 30.1747 26.3113C30.0032 26.5288 30.0244 26.7533 30.2218 26.9058Z" fill="white" fill-opacity="0.85"/>
  <path d="M25.0674 22.4956C25.2756 22.6304 25.4846 22.5914 25.6395 22.4071C26.9023 20.7767 27.8204 18.4883 27.8204 15.7167C27.8204 12.9296 26.9023 10.6424 25.6395 9.02627C25.4846 8.84199 25.2756 8.80181 25.0674 8.93778C24.8808 9.0784 24.8429 9.32178 25.0025 9.55471C26.3668 11.4232 27.0073 13.2505 27.0073 15.7167C27.0073 18.1829 26.3656 20.009 25.0025 21.8787C24.8441 22.0973 24.8808 22.3538 25.0674 22.4956Z" fill="white" fill-opacity="0.85"/>
  <path d="M2.01146 21.4545L7.25472 21.4545C7.55853 21.4545 7.73766 21.5507 7.93107 21.712L16.0359 28.9131C16.3233 29.1947 16.706 29.4341 17.1478 29.4341C17.7934 29.4341 18.1283 28.9472 18.1283 28.3467L18.1283 3.08059C18.1283 2.4801 17.7934 1.9862 17.1454 1.9862C16.7037 1.9862 16.3434 2.2588 16.0359 2.51414L7.93107 9.92673C7.73766 10.1035 7.55853 10.1379 7.25472 10.1379L2.01146 10.1379C0.633685 10.1379 0 10.8357 0 12.193L0 19.4469C0 20.8351 0.650287 21.4545 2.01146 21.4545ZM2.00415 20.6673C1.11199 20.6673 0.814321 20.3387 0.814321 19.4466L0.814321 12.1934C0.814321 11.2846 1.11199 10.956 2.00415 10.956L7.22402 10.956C7.74829 10.956 8.09576 10.8885 8.49304 10.509L16.5689 3.12692C16.7136 2.99759 16.8121 2.87059 17.0055 2.87059C17.1834 2.87059 17.3139 2.96904 17.3139 3.18021L17.3139 28.1926C17.3139 28.4346 17.1834 28.5343 17.0364 28.5343C16.907 28.5343 16.792 28.4999 16.5843 28.3088L8.49304 21.1144C8.1112 20.7669 7.74829 20.6673 7.22402 20.6673Z" fill="white" fill-opacity="0.85"/>
 </g>
</svg>
