<?xml version="1.0" encoding="UTF-8"?>
<!--Generator: Apple Native CoreSVG 326-->
<!DOCTYPE svg
PUBLIC "-//W3C//DTD SVG 1.1//EN"
       "http://www.w3.org/Graphics/SVG/1.1/DTD/svg11.dtd">
<svg version="1.1" xmlns="http://www.w3.org/2000/svg" xmlns:xlink="http://www.w3.org/1999/xlink" viewBox="0 0 29.4323 29.0813">
 <g>
  <rect height="29.0813" opacity="0" width="29.4323" x="0" y="0"/>
  <path d="M4.25565 29.0504L24.7793 29.0504C27.5709 29.0504 29.0504 27.5257 29.0504 24.7851L29.0504 4.26644C29.0504 1.52585 27.5709 0 24.7793 0L4.25565 0C1.4807 0 0 1.47953 0 4.26644L0 24.7851C0 27.5721 1.4807 29.0504 4.25565 29.0504ZM4.30429 28.2457C2.01113 28.2457 0.820132 27.0416 0.820132 24.7438L0.820132 4.30778C0.820132 2.00996 2.01113 0.820132 4.30429 0.820132L24.7461 0.820132C26.9609 0.820132 28.2303 2.00996 28.2303 4.30778L28.2303 24.7438C28.2303 27.0416 26.9609 28.2457 24.7461 28.2457Z" fill="white" fill-opacity="0.85"/>
 </g>
</svg>
