<?xml version="1.0" encoding="UTF-8"?>
<!--Generator: Apple Native CoreSVG 326-->
<!DOCTYPE svg
PUBLIC "-//W3C//DTD SVG 1.1//EN"
       "http://www.w3.org/Graphics/SVG/1.1/DTD/svg11.dtd">
<svg version="1.1" xmlns="http://www.w3.org/2000/svg" xmlns:xlink="http://www.w3.org/1999/xlink" viewBox="0 0 32.5661 32.1855">
 <g>
  <rect height="32.1855" opacity="0" width="32.5661" x="0" y="0"/>
  <path d="M16.0844 32.1689C24.9834 32.1689 32.1843 24.9679 32.1843 16.0844C32.1843 7.18549 24.9834 0 16.0844 0C7.20093 0 0 7.18549 0 16.0844C0 24.9679 7.20093 32.1689 16.0844 32.1689ZM16.0844 31.3537C7.64868 31.3537 0.815153 24.5202 0.815153 16.0844C0.815153 7.63324 7.64868 0.799713 16.0844 0.799713C24.5356 0.799713 31.3691 7.63324 31.3691 16.0844C31.3691 24.5202 24.5356 31.3537 16.0844 31.3537Z" fill="white" fill-opacity="0.85"/>
  <path d="M16.0833 9.46339C12.1426 9.46339 8.40953 10.6232 5.16459 12.8956C4.9564 13.0327 4.91623 13.2657 5.03327 13.4715C5.19896 13.6785 5.44848 13.7152 5.62579 13.5793C8.36421 11.4501 12.0053 10.283 16.0833 10.283C20.1636 10.283 23.788 11.4489 26.5253 13.5793C26.7192 13.7152 26.9676 13.6785 27.1333 13.4715C27.2526 13.2645 27.2113 13.0316 27.0031 12.8956C23.7547 10.6232 20.024 9.46339 16.0833 9.46339Z" fill="white" fill-opacity="0.85"/>
  <path d="M16.0833 14.953C13.0329 14.953 10.36 15.7974 8.25397 17.4293C8.07783 17.5807 8.03765 17.797 8.15702 17.9886C8.2729 18.1779 8.52359 18.2478 8.7341 18.1118C10.6853 16.578 13.2198 15.775 16.0833 15.775C18.9479 15.775 21.4813 16.578 23.4336 18.1118C23.6441 18.2478 23.8936 18.1779 24.0107 17.9886C24.1289 17.797 24.0899 17.5807 23.9126 17.4293C21.8111 15.7974 19.1371 14.953 16.0833 14.953Z" fill="white" fill-opacity="0.85"/>
  <path d="M16.0833 20.3963C14.3247 20.3963 12.5838 20.9573 11.3136 21.9298C11.1232 22.0944 11.0819 22.3593 11.2298 22.5189C11.4121 22.7591 11.6628 22.7352 11.8899 22.566C13.0264 21.7059 14.5317 21.2183 16.0833 21.2183C17.6372 21.2183 19.1424 21.7059 20.2778 22.566C20.5049 22.7363 20.7402 22.7448 20.9379 22.5189C21.0847 22.3593 21.0445 22.0955 20.8541 21.9298C19.5804 20.9573 17.8384 20.3963 16.0833 20.3963Z" fill="white" fill-opacity="0.85"/>
 </g>
</svg>
