<?xml version="1.0" encoding="UTF-8"?>
<!--Generator: Apple Native CoreSVG 326-->
<!DOCTYPE svg
PUBLIC "-//W3C//DTD SVG 1.1//EN"
       "http://www.w3.org/Graphics/SVG/1.1/DTD/svg11.dtd">
<svg version="1.1" xmlns="http://www.w3.org/2000/svg" xmlns:xlink="http://www.w3.org/1999/xlink" viewBox="0 0 37.4845 35.436">
 <g>
  <rect height="35.436" opacity="0" width="37.4845" x="0" y="0"/>
  <path d="M30.3614 19.0652C30.5486 19.3023 30.5309 19.5749 30.327 19.7788L28.1089 21.9803C27.8517 22.2043 27.5602 22.2054 27.2768 21.9186C25.7379 20.2564 23.4893 18.9929 21.1128 18.4528L21.1118 14.2657C24.9262 14.8323 28.409 16.6252 30.3614 19.0652ZM15.9916 18.4545C13.6152 18.9971 11.3637 20.2642 9.81511 21.9151C9.54483 22.2031 9.25099 22.2066 8.99383 21.9815L6.77569 19.7788C6.57066 19.5726 6.55406 19.3023 6.74132 19.0652C8.71878 16.6381 12.1849 14.8372 15.9921 14.2671Z" fill="white" fill-opacity="0.85"/>
  <path d="M15.9928 8.61419C10.902 9.15972 6.35972 11.384 2.9077 15.01C2.65402 15.2803 2.34357 15.2803 2.08874 15.0266L0.168267 13.1038C-0.0367631 12.8822-0.0676417 12.5787 0.149341 12.3273C3.49463 8.20276 9.62514 5.18113 15.9933 4.52996ZM36.9534 12.3273C37.1703 12.5787 37.1715 12.8822 36.9344 13.1038L35.014 15.0243C34.7591 15.2779 34.4498 15.2791 34.1973 15.0111C30.8125 11.3178 26.2196 9.13994 21.1105 8.60942L21.1096 4.53063C27.4725 5.18469 33.58 8.21661 36.9534 12.3273Z" fill="white" fill-opacity="0.85"/>
  <path d="M18.5513 30.318C19.5147 30.318 20.3337 29.4967 20.3337 28.5344C20.3337 27.5556 19.5147 26.7367 18.5513 26.7367C17.5891 26.7367 16.769 27.5402 16.769 28.5344C16.769 29.4967 17.5891 30.318 18.5513 30.318ZM18.5525 24.848C18.8148 24.848 18.9956 24.6684 18.9968 24.3883C19.0003 17.121 19.0037 9.82049 18.9918 2.552C18.9918 2.26961 18.8303 2.1162 18.5513 2.1162C18.2724 2.1162 18.1109 2.26961 18.1109 2.552C18.1001 9.82049 18.1036 17.121 18.1082 24.3883C18.1094 24.6684 18.2593 24.848 18.5525 24.848Z" fill="white" fill-opacity="0.85"/>
 </g>
</svg>
