<?xml version="1.0" encoding="UTF-8"?>
<!--Generator: Apple Native CoreSVG 326-->
<!DOCTYPE svg
PUBLIC "-//W3C//DTD SVG 1.1//EN"
       "http://www.w3.org/Graphics/SVG/1.1/DTD/svg11.dtd">
<svg version="1.1" xmlns="http://www.w3.org/2000/svg" xmlns:xlink="http://www.w3.org/1999/xlink" viewBox="0 0 37.4845 36.4577">
 <g>
  <rect height="36.4577" opacity="0" width="37.4845" x="0" y="0"/>
  <path d="M11.2388 10.1961C8.06926 11.2614 5.2397 13.0713 2.9077 15.5208C2.65402 15.7911 2.34357 15.7911 2.08874 15.5374L0.168267 13.6146C-0.0367631 13.393-0.0676417 13.0895 0.149341 12.8381C2.05954 10.483 4.87786 8.48741 8.13102 7.08834ZM36.9534 12.8381C37.1703 13.0895 37.1715 13.393 36.9344 13.6146L35.014 15.5351C34.7591 15.7887 34.4498 15.7899 34.1973 15.5219C30.2546 11.2198 24.6727 8.97396 18.5513 8.97396C17.3459 8.97396 16.1644 9.06407 15.0223 9.26676L11.6221 5.86657C13.8611 5.24437 16.2131 4.90441 18.5513 4.90441C25.7913 4.90441 33.1292 8.17807 36.9534 12.8381Z" fill="white" fill-opacity="0.85"/>
  <path d="M19.7782 18.7355C19.3688 18.6905 18.9589 18.6683 18.5513 18.6704C15.3082 18.6538 11.9154 20.187 9.81511 22.4259C9.54483 22.7139 9.25099 22.7174 8.99383 22.4923L6.77569 20.2896C6.57066 20.0834 6.55406 19.8131 6.74132 19.576C8.69294 17.1806 12.0945 15.3952 15.8429 14.8003ZM30.3614 19.576C30.5486 19.8131 30.5309 20.0857 30.327 20.2896L28.178 22.4225L20.4462 14.6907C24.5178 15.1376 28.296 16.9947 30.3614 19.576Z" fill="white" fill-opacity="0.85"/>
  <path d="M23.4729 26.5309C23.6744 26.7989 23.6235 26.9943 23.4362 27.1507L19.5552 30.9119C19.0159 31.4347 18.7776 31.5853 18.5513 31.5853C18.3251 31.5853 18.0868 31.4335 17.5474 30.9119L13.6368 27.1507C13.4484 26.9943 13.4283 26.8035 13.6097 26.5225C14.4881 25.3406 16.5301 24.2796 18.5513 24.2796C20.5834 24.2796 22.5945 25.3371 23.4729 26.5309Z" fill="white" fill-opacity="0.85"/>
  <path d="M33.4265 30.6172C33.5849 30.7756 33.8437 30.7756 34.0164 30.6172C34.2045 30.4268 34.1748 30.1858 34.0164 30.0274L5.36689 1.37791C5.22395 1.23496 4.96629 1.20409 4.77587 1.37791C4.61865 1.55056 4.61865 1.81171 4.77587 1.96777Z" fill="white" fill-opacity="0.85"/>
 </g>
</svg>
