<?xml version="1.0" encoding="UTF-8"?>
<!--Generator: Apple Native CoreSVG 326-->
<!DOCTYPE svg
PUBLIC "-//W3C//DTD SVG 1.1//EN"
       "http://www.w3.org/Graphics/SVG/1.1/DTD/svg11.dtd">
<svg version="1.1" xmlns="http://www.w3.org/2000/svg" xmlns:xlink="http://www.w3.org/1999/xlink" viewBox="0 0 37.4845 26.7129">
 <g>
  <rect height="26.7129" opacity="0" width="37.4845" x="0" y="0"/>
  <path d="M2.08874 10.665C2.34357 10.9187 2.65402 10.9187 2.9077 10.6484C6.92992 6.42348 12.4323 4.10159 18.5513 4.10159C24.6727 4.10159 30.2546 6.34745 34.1973 10.6496C34.4498 10.9175 34.7591 10.9164 35.014 10.6627L36.9344 8.74222C37.1715 8.52059 37.1703 8.21711 36.9534 7.96576C33.1292 3.30571 25.7913 0.0320409 18.5513 0.0320409C11.3126 0.0320409 3.94147 3.29027 0.149341 7.96576C-0.0676417 8.21711-0.0367631 8.52059 0.168267 8.74222Z" fill="white" fill-opacity="0.85"/>
  <path d="M8.99383 17.6199C9.25099 17.845 9.54483 17.8415 9.81511 17.5535C11.9154 15.3146 15.3082 13.7815 18.5513 13.7981C21.7968 13.7815 25.1896 15.3027 27.2768 17.557C27.5602 17.8439 27.8517 17.8427 28.1089 17.6187L30.327 15.4172C30.5309 15.2133 30.5486 14.9407 30.3614 14.7037C27.978 11.725 23.3142 9.71075 18.5513 9.71075C13.7885 9.71075 9.15552 11.7405 6.74132 14.7037C6.55406 14.9407 6.57066 15.211 6.77569 15.4172Z" fill="white" fill-opacity="0.85"/>
  <path d="M18.5513 26.7129C18.7776 26.7129 19.0159 26.5623 19.5552 26.0396L23.4362 22.2783C23.6235 22.1219 23.6744 21.9265 23.4729 21.6586C22.5945 20.4647 20.5834 19.4072 18.5513 19.4072C16.5301 19.4072 14.4881 20.4682 13.6097 21.6501C13.4283 21.9312 13.4484 22.1219 13.6368 22.2783L17.5474 26.0396C18.0868 26.5612 18.3251 26.7129 18.5513 26.7129Z" fill="white" fill-opacity="0.85"/>
 </g>
</svg>
