<?xml version="1.0" encoding="UTF-8"?>
<!--Generator: Apple Native CoreSVG 326-->
<!DOCTYPE svg
PUBLIC "-//W3C//DTD SVG 1.1//EN"
       "http://www.w3.org/Graphics/SVG/1.1/DTD/svg11.dtd">
<svg version="1.1" xmlns="http://www.w3.org/2000/svg" xmlns:xlink="http://www.w3.org/1999/xlink" viewBox="0 0 25.2758 24.9569">
 <g>
  <rect height="24.9569" opacity="0" width="25.2758" x="0" y="0"/>
  <path d="M0.122709 24.8341C0.286902 24.9972 0.524144 24.9972 0.687174 24.8341L12.4547 13.0821L24.2068 24.8341C24.3698 24.9972 24.6082 24.9983 24.7712 24.8341C24.9343 24.6699 24.9343 24.4339 24.7712 24.2708L13.0192 12.5176L24.7712 0.750094C24.9343 0.587063 24.9354 0.349821 24.7712 0.186791C24.607 0.0225982 24.3698 0.0225982 24.2068 0.186791L12.4547 11.9389L0.687174 0.186791C0.524144 0.0225982 0.28574 0.0214359 0.122709 0.186791C-0.0403214 0.350984-0.0403214 0.587063 0.122709 0.750094L11.8748 12.5176L0.122709 24.2708C-0.0403214 24.4339-0.0414836 24.6711 0.122709 24.8341Z" fill="white" fill-opacity="0.85"/>
 </g>
</svg>
