<?xml version="1.0" encoding="UTF-8"?>
<!--Generator: Apple Native CoreSVG 326-->
<!DOCTYPE svg
PUBLIC "-//W3C//DTD SVG 1.1//EN"
       "http://www.w3.org/Graphics/SVG/1.1/DTD/svg11.dtd">
<svg version="1.1" xmlns="http://www.w3.org/2000/svg" xmlns:xlink="http://www.w3.org/1999/xlink" viewBox="0 0 35.627 31.0999">
 <g>
  <rect height="31.0999" opacity="0" width="35.627" x="0" y="0"/>
  <path d="M0 11.8063C0 16.1061 1.56055 20.0905 4.31641 23.0787C4.94727 23.776 5.87695 23.776 6.4082 23.1617C6.93945 22.5641 6.77344 21.7838 6.17578 21.1032C3.95117 18.6295 2.70605 15.3756 2.70605 11.8063C2.70605 8.23694 3.95117 4.98304 6.17578 2.5094C6.77344 1.82874 6.93945 1.04847 6.4082 0.45081C5.87695-0.163448 4.94727-0.163448 4.31641 0.533818C1.56055 3.5221 0 7.50647 0 11.8063ZM28.8369 23.1617C29.3682 23.776 30.2979 23.776 30.9287 23.0787C33.6846 20.0905 35.2451 16.1061 35.2451 11.8063C35.2451 7.50647 33.6846 3.5221 30.9287 0.533818C30.2979-0.163448 29.3682-0.163448 28.8369 0.45081C28.3057 1.04847 28.4717 1.82874 29.0693 2.5094C31.2939 4.98304 32.5391 8.23694 32.5391 11.8063C32.5391 15.3756 31.2939 18.6295 29.0693 21.1032C28.4717 21.7838 28.3057 22.5641 28.8369 23.1617Z" fill="white" fill-opacity="0.85"/>
  <path d="M6.98926 11.8063C6.98926 14.2467 7.81934 16.5211 9.26367 18.3141C9.84473 19.0778 10.8408 19.0612 11.3887 18.4303C11.9199 17.8326 11.7041 17.0856 11.1729 16.3717C10.1768 15.1432 9.69531 13.5328 9.69531 11.8063C9.69531 10.0797 10.2266 8.51917 11.1729 7.24085C11.6875 6.51038 11.9199 5.77991 11.3887 5.18226C10.8408 4.5514 9.84473 4.53479 9.26367 5.29847C7.81934 7.09144 6.98926 9.36585 6.98926 11.8063ZM23.8564 18.4303C24.4043 19.0612 25.4004 19.0778 25.9814 18.3141C27.4258 16.5211 28.2559 14.2467 28.2559 11.8063C28.2559 9.36585 27.4258 7.09144 25.9814 5.29847C25.4004 4.53479 24.4043 4.5514 23.8564 5.18226C23.3252 5.77991 23.5576 6.51038 24.0723 7.24085C25.0186 8.51917 25.5498 10.0797 25.5498 11.8063C25.5498 13.5328 25.0684 15.1432 24.0723 16.3717C23.541 17.0856 23.3252 17.8326 23.8564 18.4303Z" fill="white" fill-opacity="0.85"/>
  <path d="M14.6426 11.8063C14.6426 13.0016 15.3232 14.0309 16.3525 14.4957L16.3525 29.4205C16.3525 30.2672 16.8672 30.8483 17.6309 30.8483C18.4111 30.8483 18.8926 30.2838 18.8926 29.4205L18.8926 14.4957C19.9053 14.0309 20.6025 12.985 20.6025 11.8063C20.6025 10.1461 19.291 8.8014 17.6309 8.8014C15.9541 8.8014 14.6426 10.1461 14.6426 11.8063Z" fill="white" fill-opacity="0.85"/>
 </g>
</svg>
