<?xml version="1.0" encoding="UTF-8"?>
<!--Generator: Apple Native CoreSVG 326-->
<!DOCTYPE svg
PUBLIC "-//W3C//DTD SVG 1.1//EN"
       "http://www.w3.org/Graphics/SVG/1.1/DTD/svg11.dtd">
<svg version="1.1" xmlns="http://www.w3.org/2000/svg" xmlns:xlink="http://www.w3.org/1999/xlink" viewBox="0 0 49.5225 27.0082">
 <g>
  <rect height="27.0082" opacity="0" width="49.5225" x="0" y="0"/>
  <path d="M19.6789 4.94597L8.4502 4.94597C6.70703 4.94597 4.89746 5.16179 3.88477 6.17449C2.88867 7.18718 2.67285 8.96355 2.67285 10.7067L2.67285 16.3346C2.67285 18.0446 2.88867 19.821 3.88477 20.8337C4.89746 21.8298 6.69043 22.0622 8.40039 22.0622L16.5281 22.0622L16.2695 22.7594C16.0037 23.4774 15.9805 24.1488 16.1337 24.735L8.84863 24.735C6.02637 24.735 3.63574 24.4694 1.94238 22.776C0.249023 21.0827 0 18.7253 0 15.8864L0 11.0719C0 8.29949 0.249023 5.92546 1.94238 4.2321C3.63574 2.53874 6.02637 2.27312 8.81543 2.27312L21.8056 2.27312ZM41.8691 4.2321C43.5625 5.92546 43.8115 8.28288 43.8115 11.1218L43.8115 15.8864C43.8115 18.7253 43.5625 21.0827 41.8691 22.776C40.1758 24.4694 37.7852 24.735 34.9463 24.735L22.4044 24.735L24.531 22.0622L35.4111 22.0622C37.1211 22.0622 38.9141 21.8298 39.9102 20.8337C40.9229 19.821 41.1387 18.0446 41.1387 16.3346L41.1387 10.6569C41.1387 8.94695 40.9229 7.18718 39.9102 6.17449C38.9141 5.17839 37.1211 4.94597 35.4111 4.94597L27.6818 4.94597L27.9404 4.2487C28.2062 3.53071 28.2294 2.85937 28.0763 2.27312L34.9463 2.27312C37.7852 2.27312 40.1758 2.53874 41.8691 4.2321ZM49.1406 13.4958C49.1406 16.0358 47.3809 17.7126 46.0693 17.7956L46.0693 9.21257C47.3809 9.29558 49.1406 10.9723 49.1406 13.4958Z" fill="white" fill-opacity="0.85"/>
  <path d="M13.4971 12.7155C13.0156 13.3132 12.7334 14.0104 12.7334 14.7575C12.7334 16.4176 14.0947 17.7458 15.7715 17.7458L18.1289 17.7458L17.2423 20.1364L7.52051 20.1364C6.3916 20.1364 5.71094 19.9704 5.24609 19.5055C4.78125 19.0407 4.61523 18.3766 4.61523 17.2311L4.61523 9.81023C4.61523 8.64812 4.78125 7.96745 5.24609 7.50261C5.69434 7.03777 6.375 6.87175 7.57031 6.87175L18.1467 6.87175ZM38.5654 7.50261C39.0137 7.96745 39.1963 8.63152 39.1963 9.77702L39.1963 17.2311C39.1963 18.3766 39.0137 19.0407 38.5654 19.5055C38.1006 19.9704 37.4365 20.1364 36.291 20.1364L26.0633 20.1364L30.7129 14.2926C31.1943 13.695 31.4766 12.9977 31.4766 12.2507C31.4766 10.5905 30.1152 9.26238 28.4385 9.26238L26.0811 9.26238L26.9676 6.87175L36.291 6.87175C37.4199 6.87175 38.1006 7.03777 38.5654 7.50261Z" fill="white" fill-opacity="0.85"/>
  <path d="M14.9912 14.7575C14.9912 15.1725 15.3232 15.4714 15.7549 15.4714L21.3828 15.4714L18.3779 23.5397C17.9961 24.6022 19.125 25.1833 19.8057 24.3366L28.9033 12.8981C29.0693 12.6823 29.1855 12.4665 29.1855 12.2507C29.1855 11.8356 28.8535 11.5368 28.4219 11.5368L22.7939 11.5368L25.7988 3.46843C26.1807 2.40593 25.0518 1.82488 24.3711 2.67156L15.2734 14.0934C15.0908 14.3259 14.9912 14.5417 14.9912 14.7575Z" fill="white" fill-opacity="0.85"/>
 </g>
</svg>
