<?xml version="1.0" encoding="UTF-8"?>
<!--Generator: Apple Native CoreSVG 326-->
<!DOCTYPE svg
PUBLIC "-//W3C//DTD SVG 1.1//EN"
       "http://www.w3.org/Graphics/SVG/1.1/DTD/svg11.dtd">
<svg version="1.1" xmlns="http://www.w3.org/2000/svg" xmlns:xlink="http://www.w3.org/1999/xlink" viewBox="0 0 49.5225 22.4619">
 <g>
  <rect height="22.4619" opacity="0" width="49.5225" x="0" y="0"/>
  <path d="M8.84863 22.4619L34.9463 22.4619C37.7852 22.4619 40.1758 22.1963 41.8691 20.5029C43.5625 18.8096 43.8115 16.4521 43.8115 13.6133L43.8115 8.84863C43.8115 6.00977 43.5625 3.65234 41.8691 1.95898C40.1758 0.265625 37.7852 0 34.9463 0L8.81543 0C6.02637 0 3.63574 0.265625 1.94238 1.95898C0.249023 3.65234 0 6.02637 0 8.79883L0 13.6133C0 16.4521 0.249023 18.8096 1.94238 20.5029C3.63574 22.1963 6.02637 22.4619 8.84863 22.4619ZM8.40039 19.7891C6.69043 19.7891 4.89746 19.5566 3.88477 18.5605C2.88867 17.5479 2.67285 15.7715 2.67285 14.0615L2.67285 8.43359C2.67285 6.69043 2.88867 4.91406 3.88477 3.90137C4.89746 2.88867 6.70703 2.67285 8.4502 2.67285L35.4111 2.67285C37.1211 2.67285 38.9141 2.90527 39.9102 3.90137C40.9229 4.91406 41.1387 6.67383 41.1387 8.38379L41.1387 14.0615C41.1387 15.7715 40.9229 17.5479 39.9102 18.5605C38.9141 19.5566 37.1211 19.7891 35.4111 19.7891ZM46.0693 15.5225C47.3809 15.4395 49.1406 13.7627 49.1406 11.2227C49.1406 8.69922 47.3809 7.02246 46.0693 6.93945Z" fill="white" fill-opacity="0.85"/>
 </g>
</svg>
