<?xml version="1.0" encoding="UTF-8"?>
<!--Generator: Apple Native CoreSVG 326-->
<!DOCTYPE svg
PUBLIC "-//W3C//DTD SVG 1.1//EN"
       "http://www.w3.org/Graphics/SVG/1.1/DTD/svg11.dtd">
<svg version="1.1" xmlns="http://www.w3.org/2000/svg" xmlns:xlink="http://www.w3.org/1999/xlink" viewBox="0 0 42.168 26.2471">
 <g>
  <rect height="26.2471" opacity="0" width="42.168" x="0" y="0"/>
  <path d="M5.21289 26.2305L36.5732 26.2305C40.0264 26.2305 41.7861 24.5039 41.7861 21.084L41.7861 5.12988C41.7861 1.72656 40.0264 0 36.5732 0L5.21289 0C1.72656 0 0 1.70996 0 5.12988L0 21.084C0 24.5039 1.72656 26.2305 5.21289 26.2305ZM5.24609 23.5576C3.58594 23.5576 2.67285 22.6611 2.67285 20.9346L2.67285 5.2793C2.67285 3.55273 3.58594 2.67285 5.24609 2.67285L36.5234 2.67285C38.167 2.67285 39.1133 3.55273 39.1133 5.2793L39.1133 20.9346C39.1133 22.6611 38.167 23.5576 36.5234 23.5576ZM6.74023 9.24707L8.26758 9.24707C8.73242 9.24707 9.01465 8.96484 9.01465 8.5166L9.01465 6.98926C9.01465 6.52441 8.73242 6.24219 8.26758 6.24219L6.74023 6.24219C6.29199 6.24219 6.00977 6.52441 6.00977 6.98926L6.00977 8.5166C6.00977 8.96484 6.29199 9.24707 6.74023 9.24707ZM12.0859 9.24707L13.6133 9.24707C14.0615 9.24707 14.3438 8.96484 14.3438 8.5166L14.3438 6.98926C14.3438 6.52441 14.0615 6.24219 13.6133 6.24219L12.0859 6.24219C11.6211 6.24219 11.3389 6.52441 11.3389 6.98926L11.3389 8.5166C11.3389 8.96484 11.6211 9.24707 12.0859 9.24707ZM17.4316 9.24707L18.9424 9.24707C19.4072 9.24707 19.6895 8.96484 19.6895 8.5166L19.6895 6.98926C19.6895 6.52441 19.4072 6.24219 18.9424 6.24219L17.4316 6.24219C16.9668 6.24219 16.6846 6.52441 16.6846 6.98926L16.6846 8.5166C16.6846 8.96484 16.9668 9.24707 17.4316 9.24707ZM22.7607 9.24707L24.2881 9.24707C24.7529 9.24707 25.0352 8.96484 25.0352 8.5166L25.0352 6.98926C25.0352 6.52441 24.7529 6.24219 24.2881 6.24219L22.7607 6.24219C22.3125 6.24219 22.0303 6.52441 22.0303 6.98926L22.0303 8.5166C22.0303 8.96484 22.3125 9.24707 22.7607 9.24707ZM28.1064 9.24707L29.6338 9.24707C30.082 9.24707 30.3643 8.96484 30.3643 8.5166L30.3643 6.98926C30.3643 6.52441 30.082 6.24219 29.6338 6.24219L28.1064 6.24219C27.6416 6.24219 27.3594 6.52441 27.3594 6.98926L27.3594 8.5166C27.3594 8.96484 27.6416 9.24707 28.1064 9.24707ZM33.4521 9.24707L34.9629 9.24707C35.4277 9.24707 35.71 8.96484 35.71 8.5166L35.71 6.98926C35.71 6.52441 35.4277 6.24219 34.9629 6.24219L33.4521 6.24219C32.9873 6.24219 32.7051 6.52441 32.7051 6.98926L32.7051 8.5166C32.7051 8.96484 32.9873 9.24707 33.4521 9.24707ZM6.74023 14.5928L8.26758 14.5928C8.73242 14.5928 9.01465 14.3105 9.01465 13.8457L9.01465 12.335C9.01465 11.8701 8.73242 11.5879 8.26758 11.5879L6.74023 11.5879C6.29199 11.5879 6.00977 11.8701 6.00977 12.335L6.00977 13.8457C6.00977 14.3105 6.29199 14.5928 6.74023 14.5928ZM12.0859 14.5928L13.6133 14.5928C14.0615 14.5928 14.3438 14.3105 14.3438 13.8457L14.3438 12.335C14.3438 11.8701 14.0615 11.5879 13.6133 11.5879L12.0859 11.5879C11.6211 11.5879 11.3389 11.8701 11.3389 12.335L11.3389 13.8457C11.3389 14.3105 11.6211 14.5928 12.0859 14.5928ZM17.4316 14.5928L18.9424 14.5928C19.4072 14.5928 19.6895 14.3105 19.6895 13.8457L19.6895 12.335C19.6895 11.8701 19.4072 11.5879 18.9424 11.5879L17.4316 11.5879C16.9668 11.5879 16.6846 11.8701 16.6846 12.335L16.6846 13.8457C16.6846 14.3105 16.9668 14.5928 17.4316 14.5928ZM22.7607 14.5928L24.2881 14.5928C24.7529 14.5928 25.0352 14.3105 25.0352 13.8457L25.0352 12.335C25.0352 11.8701 24.7529 11.5879 24.2881 11.5879L22.7607 11.5879C22.3125 11.5879 22.0303 11.8701 22.0303 12.335L22.0303 13.8457C22.0303 14.3105 22.3125 14.5928 22.7607 14.5928ZM28.1064 14.5928L29.6338 14.5928C30.082 14.5928 30.3643 14.3105 30.3643 13.8457L30.3643 12.335C30.3643 11.8701 30.082 11.5879 29.6338 11.5879L28.1064 11.5879C27.6416 11.5879 27.3594 11.8701 27.3594 12.335L27.3594 13.8457C27.3594 14.3105 27.6416 14.5928 28.1064 14.5928ZM33.4521 14.5928L34.9629 14.5928C35.4277 14.5928 35.71 14.3105 35.71 13.8457L35.71 12.335C35.71 11.8701 35.4277 11.5879 34.9629 11.5879L33.4521 11.5879C32.9873 11.5879 32.7051 11.8701 32.7051 12.335L32.7051 13.8457C32.7051 14.3105 32.9873 14.5928 33.4521 14.5928ZM6.74023 19.9385L8.26758 19.9385C8.73242 19.9385 9.01465 19.6562 9.01465 19.1914L9.01465 17.6641C9.01465 17.2158 8.73242 16.9336 8.26758 16.9336L6.74023 16.9336C6.29199 16.9336 6.00977 17.2158 6.00977 17.6641L6.00977 19.1914C6.00977 19.6562 6.29199 19.9385 6.74023 19.9385ZM12.252 19.9385L29.4678 19.9385C30.0322 19.9385 30.3643 19.6064 30.3643 19.0254L30.3643 17.8301C30.3643 17.2656 30.0322 16.9336 29.4678 16.9336L12.252 16.9336C11.6709 16.9336 11.3389 17.2656 11.3389 17.8301L11.3389 19.0254C11.3389 19.6064 11.6709 19.9385 12.252 19.9385ZM33.4521 19.9385L34.9629 19.9385C35.4277 19.9385 35.71 19.6562 35.71 19.1914L35.71 17.6641C35.71 17.2158 35.4277 16.9336 34.9629 16.9336L33.4521 16.9336C32.9873 16.9336 32.7051 17.2158 32.7051 17.6641L32.7051 19.1914C32.7051 19.6562 32.9873 19.9385 33.4521 19.9385Z" fill="white" fill-opacity="0.85"/>
 </g>
</svg>
