<?xml version="1.0" encoding="UTF-8"?>
<!--Generator: Apple Native CoreSVG 326-->
<!DOCTYPE svg
PUBLIC "-//W3C//DTD SVG 1.1//EN"
       "http://www.w3.org/Graphics/SVG/1.1/DTD/svg11.dtd">
<svg version="1.1" xmlns="http://www.w3.org/2000/svg" xmlns:xlink="http://www.w3.org/1999/xlink" viewBox="0 0 27.9238 27.9072">
 <g>
  <rect height="27.9072" opacity="0" width="27.9238" x="0" y="0"/>
  <path d="M3.1377 25.4668C3.1377 27.1104 4.08398 27.8906 5.21289 27.8906C5.71094 27.8906 6.22559 27.7246 6.74023 27.459L26.0811 16.1533C27.459 15.3564 27.9238 14.8086 27.9238 13.9453C27.9238 13.0654 27.459 12.5342 26.0811 11.7373L6.74023 0.431641C6.22559 0.149414 5.71094 0 5.21289 0C4.08398 0 3.1377 0.780273 3.1377 2.42383ZM5.81055 24.2881L5.81055 3.60254C5.81055 3.30371 6.07617 3.1709 6.3252 3.32031L24.0723 13.6797C24.1885 13.7295 24.2549 13.8457 24.2549 13.9453C24.2549 14.0449 24.1885 14.1445 24.0723 14.2109L6.3252 24.5703C6.07617 24.7197 5.81055 24.5869 5.81055 24.2881Z" fill="white" fill-opacity="0.85"/>
 </g>
</svg>
