<?xml version="1.0" encoding="UTF-8"?>
<!--Generator: Apple Native CoreSVG 326-->
<!DOCTYPE svg
PUBLIC "-//W3C//DTD SVG 1.1//EN"
       "http://www.w3.org/Graphics/SVG/1.1/DTD/svg11.dtd">
<svg version="1.1" xmlns="http://www.w3.org/2000/svg" xmlns:xlink="http://www.w3.org/1999/xlink" viewBox="0 0 33.9751 32.6345">
 <g>
  <rect height="32.6345" opacity="0" width="33.9751" x="0" y="0"/>
  <path d="M8.83618 13.393L8.83618 26.6517C8.83618 26.9506 9.10181 27.0834 9.35083 26.934L17.5834 22.1284L19.5569 24.0993L9.76587 29.8226C9.25122 30.0883 8.73657 30.2543 8.23853 30.2543C7.10962 30.2543 6.16333 29.474 6.16333 27.8305L6.16333 10.7238ZM9.76587 2.7953L29.1067 14.101C30.4846 14.8978 30.9495 15.4291 30.9495 16.309C30.9495 17.1723 30.4846 17.7201 29.1067 18.517L25.3015 20.7413L23.3318 18.773L27.0979 16.5746C27.2141 16.5082 27.2805 16.4086 27.2805 16.309C27.2805 16.2094 27.2141 16.0931 27.0979 16.0433L11.4742 6.92345L7.18547 2.63758C7.49494 2.45312 7.85626 2.36366 8.23853 2.36366C8.73657 2.36366 9.25122 2.51307 9.76587 2.7953Z" fill="white" fill-opacity="0.85"/>
  <path d="M26.8821 28.6605C27.3801 29.1586 28.2102 29.1586 28.6917 28.6605C29.1731 28.1625 29.1897 27.349 28.6917 26.851L4.13794 2.31385C3.63989 1.81581 2.80981 1.81581 2.31177 2.31385C1.83032 2.7953 1.83032 3.64198 2.31177 4.12342Z" fill="white" fill-opacity="0.85"/>
 </g>
</svg>
