<?xml version="1.0" encoding="UTF-8"?>
<!--Generator: Apple Native CoreSVG 326-->
<!DOCTYPE svg
PUBLIC "-//W3C//DTD SVG 1.1//EN"
       "http://www.w3.org/Graphics/SVG/1.1/DTD/svg11.dtd">
<svg version="1.1" xmlns="http://www.w3.org/2000/svg" xmlns:xlink="http://www.w3.org/1999/xlink" viewBox="0 0 34.249 35.8096">
 <g>
  <rect height="35.8096" opacity="0" width="34.249" x="0" y="0"/>
  <path d="M16.9336 34.8301C26.2803 34.8301 33.8672 27.2432 33.8672 17.8965C33.8672 12.6504 31.5762 8.35059 28.3721 5.44531C26.9111 4.10059 25.0186 6.12598 26.4795 7.4873C29.3018 10.0771 31.0449 13.7627 31.0449 17.8965C31.0449 25.6992 24.7363 32.0078 16.9336 32.0078C9.13086 32.0078 2.82227 25.6992 2.82227 17.8965C2.82227 13.7295 4.58203 10.0605 7.3877 7.4707C8.86523 6.09277 6.98926 4.15039 5.51172 5.46191C2.27441 8.30078 0 12.7998 0 17.8965C0 27.2432 7.58691 34.8301 16.9336 34.8301ZM16.9336 17.7305C17.7305 17.7305 18.2783 17.1494 18.2783 16.3193L18.2783 1.41113C18.2783 0.564453 17.7305 0 16.9336 0C16.1367 0 15.6055 0.564453 15.6055 1.41113L15.6055 16.3193C15.6055 17.1494 16.1367 17.7305 16.9336 17.7305Z" fill="white" fill-opacity="0.85"/>
 </g>
</svg>
