<?xml version="1.0" encoding="UTF-8"?>
<!--Generator: Apple Native CoreSVG 326-->
<!DOCTYPE svg
PUBLIC "-//W3C//DTD SVG 1.1//EN"
       "http://www.w3.org/Graphics/SVG/1.1/DTD/svg11.dtd">
<svg version="1.1" xmlns="http://www.w3.org/2000/svg" xmlns:xlink="http://www.w3.org/1999/xlink" viewBox="0 0 29.8994 29.3018">
 <g>
  <rect height="29.3018" opacity="0" width="29.8994" x="0" y="0"/>
  <path d="M25.6992 21.7148C26.2471 22.0967 27.0273 21.9805 27.4756 21.333C28.7539 19.6562 29.5176 17.1826 29.5176 14.6426C29.5176 12.1025 28.7539 9.64551 27.4756 7.95215C27.0273 7.30469 26.2471 7.17188 25.6992 7.57031C25.0186 8.03516 24.9189 8.86523 25.4336 9.5459C26.3965 10.874 26.9443 12.7168 26.9443 14.6426C26.9443 16.5684 26.3799 18.3945 25.4336 19.7393C24.9355 20.4365 25.0186 21.2334 25.6992 21.7148Z" fill="white" fill-opacity="0.85"/>
  <path d="M17.8965 29.3018C18.9922 29.3018 19.7725 28.5215 19.7725 27.4424L19.7725 1.97559C19.7725 0.896484 18.9922 0.0166016 17.8633 0.0166016C17.083 0.0166016 16.5518 0.348633 15.7217 1.16211L8.63281 7.80273C8.5332 7.90234 8.38379 7.95215 8.21777 7.95215L3.46973 7.95215C1.21191 7.95215 0 9.19727 0 11.5879L0 17.7637C0 20.1709 1.21191 21.3994 3.46973 21.3994L8.21777 21.3994C8.38379 21.3994 8.5332 21.4492 8.63281 21.5488L15.7217 28.2559C16.4688 28.9863 17.1162 29.3018 17.8965 29.3018Z" fill="white" fill-opacity="0.85"/>
 </g>
</svg>
