<?xml version="1.0" encoding="UTF-8"?>
<!--Generator: Apple Native CoreSVG 326-->
<!DOCTYPE svg
PUBLIC "-//W3C//DTD SVG 1.1//EN"
       "http://www.w3.org/Graphics/SVG/1.1/DTD/svg11.dtd">
<svg version="1.1" xmlns="http://www.w3.org/2000/svg" xmlns:xlink="http://www.w3.org/1999/xlink" viewBox="0 0 37.4365 29.3018">
 <g>
  <rect height="29.3018" opacity="0" width="37.4365" x="0" y="0"/>
  <path d="M31.8584 26.0479C32.4727 26.4629 33.2363 26.3135 33.6846 25.6826C35.8096 22.7607 37.0547 18.7432 37.0547 14.6426C37.0547 10.542 35.8262 6.49121 33.6846 3.60254C33.2363 2.97168 32.4727 2.82227 31.8584 3.2373C31.2441 3.65234 31.1445 4.43262 31.626 5.11328C33.4355 7.66992 34.4814 11.1064 34.4814 14.6426C34.4814 18.1787 33.4023 21.582 31.626 24.1719C31.1611 24.8525 31.2441 25.6328 31.8584 26.0479Z" fill="white" fill-opacity="0.85"/>
  <path d="M25.7158 21.7148C26.2637 22.0967 27.0439 21.9805 27.4922 21.333C28.7705 19.6562 29.5342 17.1826 29.5342 14.6426C29.5342 12.1025 28.7705 9.64551 27.4922 7.95215C27.0439 7.30469 26.2637 7.17188 25.7158 7.57031C25.0352 8.03516 24.9355 8.86523 25.4502 9.5459C26.4131 10.874 26.9609 12.7168 26.9609 14.6426C26.9609 16.5684 26.3965 18.3945 25.4502 19.7393C24.9521 20.4365 25.0352 21.2334 25.7158 21.7148Z" fill="white" fill-opacity="0.85"/>
  <path d="M17.8965 29.3018C18.9922 29.3018 19.7725 28.5215 19.7725 27.4424L19.7725 1.97559C19.7725 0.896484 18.9922 0.0166016 17.8633 0.0166016C17.083 0.0166016 16.5684 0.365234 15.7217 1.16211L8.63281 7.80273C8.5332 7.90234 8.38379 7.95215 8.21777 7.95215L3.46973 7.95215C1.21191 7.95215 0 9.19727 0 11.5879L0 17.7637C0 20.1709 1.21191 21.3994 3.46973 21.3994L8.21777 21.3994C8.38379 21.3994 8.5332 21.4492 8.63281 21.5488L15.7217 28.2559C16.4688 28.9863 17.1162 29.3018 17.8965 29.3018Z" fill="white" fill-opacity="0.85"/>
 </g>
</svg>
