<?xml version="1.0" encoding="UTF-8"?>
<!--Generator: Apple Native CoreSVG 326-->
<!DOCTYPE svg
PUBLIC "-//W3C//DTD SVG 1.1//EN"
       "http://www.w3.org/Graphics/SVG/1.1/DTD/svg11.dtd">
<svg version="1.1" xmlns="http://www.w3.org/2000/svg" xmlns:xlink="http://www.w3.org/1999/xlink" viewBox="0 0 44.9404 32.0871">
 <g>
  <rect height="32.0871" opacity="0" width="44.9404" x="0" y="0"/>
  <path d="M38.084 31.8399C38.6484 32.255 39.4619 32.089 39.9102 31.4249C42.8154 27.2247 44.5586 21.8956 44.5586 16.0352C44.5586 10.1583 42.7656 4.8624 39.9102 0.645598C39.4619-0.0350659 38.6484-0.18448 38.084 0.230559C37.4531 0.6622 37.3701 1.44247 37.8184 2.12314C40.3916 5.9249 42.0186 10.7061 42.0186 16.0352C42.0186 21.3477 40.3916 26.1622 37.8184 29.9474C37.3701 30.628 37.4531 31.4083 38.084 31.8399Z" fill="white" fill-opacity="0.85"/>
  <path d="M31.8584 27.4405C32.4727 27.8556 33.2363 27.7061 33.6846 27.0753C35.8096 24.1534 37.0547 20.1358 37.0547 16.0352C37.0547 11.9347 35.8262 7.88388 33.6846 4.99521C33.2363 4.36435 32.4727 4.21493 31.8584 4.62997C31.2441 5.04501 31.1445 5.82529 31.626 6.50595C33.4355 9.06259 34.4814 12.4991 34.4814 16.0352C34.4814 19.5714 33.4023 22.9747 31.626 25.5645C31.1611 26.2452 31.2441 27.0255 31.8584 27.4405Z" fill="white" fill-opacity="0.85"/>
  <path d="M25.6992 23.1075C26.2471 23.4893 27.0273 23.3731 27.4756 22.7257C28.7539 21.0489 29.5176 18.5753 29.5176 16.0352C29.5176 13.4952 28.7539 11.0382 27.4756 9.34482C27.0273 8.69736 26.2471 8.56454 25.6992 8.96298C25.0186 9.42782 24.9189 10.2579 25.4336 10.9386C26.3965 12.2667 26.9443 14.1095 26.9443 16.0352C26.9443 17.961 26.3799 19.7872 25.4336 21.1319C24.9355 21.8292 25.0186 22.6261 25.6992 23.1075Z" fill="white" fill-opacity="0.85"/>
  <path d="M17.8965 30.6944C18.9922 30.6944 19.7725 29.9142 19.7725 28.8351L19.7725 3.36825C19.7725 2.28915 18.9922 1.40927 17.8633 1.40927C17.083 1.40927 16.5518 1.7413 15.7217 2.55478L8.63281 9.1954C8.5332 9.29501 8.38379 9.34482 8.21777 9.34482L3.46973 9.34482C1.21191 9.34482 0 10.5899 0 12.9806L0 19.1563C0 21.5636 1.21191 22.7921 3.46973 22.7921L8.21777 22.7921C8.38379 22.7921 8.5332 22.8419 8.63281 22.9415L15.7217 29.6485C16.4688 30.379 17.1162 30.6944 17.8965 30.6944Z" fill="white" fill-opacity="0.85"/>
 </g>
</svg>
