<?xml version="1.0" encoding="UTF-8"?>
<!--Generator: Apple Native CoreSVG 326-->
<!DOCTYPE svg
PUBLIC "-//W3C//DTD SVG 1.1//EN"
       "http://www.w3.org/Graphics/SVG/1.1/DTD/svg11.dtd">
<svg version="1.1" xmlns="http://www.w3.org/2000/svg" xmlns:xlink="http://www.w3.org/1999/xlink" viewBox="0 0 34.249 33.8838">
 <g>
  <rect height="33.8838" opacity="0" width="34.249" x="0" y="0"/>
  <path d="M33.8672 16.9502C33.8672 26.2969 26.2803 33.8838 16.9336 33.8838C7.60352 33.8838 0 26.2969 0 16.9502C0 7.62012 7.60352 0.0166016 16.9336 0.0166016C26.2803 0.0166016 33.8672 7.62012 33.8672 16.9502ZM12.1523 21.8643C11.6045 22.2295 11.4717 22.96 11.8369 23.4912C12.252 24.0723 12.9658 24.1885 13.5801 23.7568C14.4268 23.1426 15.6719 22.7607 16.917 22.7607C18.1953 22.7607 19.4404 23.1426 20.2373 23.7568C20.8516 24.2051 21.6152 24.0889 22.0137 23.4912C22.3623 22.96 22.2295 22.2461 21.6982 21.8643C20.4199 20.9512 18.6602 20.4199 16.917 20.4199C15.124 20.4199 13.3311 20.9512 12.1523 21.8643ZM9.16406 17.4482C8.59961 17.8633 8.4668 18.5439 8.84863 19.0752C9.21387 19.5898 9.94434 19.7393 10.542 19.3242C12.2354 18.1123 14.543 17.3984 16.917 17.3984C19.291 17.3984 21.5986 18.1123 23.292 19.3242C23.873 19.7393 24.6201 19.5898 24.9688 19.0752C25.3672 18.5439 25.2178 17.8633 24.6699 17.4482C22.5781 15.9043 19.8223 15.0576 16.917 15.0576C14.0615 15.0576 11.2891 15.9043 9.16406 17.4482ZM6.17578 12.9658C5.61133 13.3809 5.46191 14.0947 5.84375 14.626C6.24219 15.1738 6.93945 15.2568 7.52051 14.875C10.0938 13.0488 13.4805 12.0361 16.917 12.0361C20.3867 12.0361 23.7236 13.0322 26.3135 14.875C26.8779 15.2568 27.5918 15.1738 27.9902 14.626C28.3887 14.0781 28.2393 13.3643 27.6416 12.9658C24.6201 10.874 20.8184 9.72852 16.917 9.72852C12.9824 9.72852 9.18066 10.874 6.17578 12.9658Z" fill="white" fill-opacity="0.85"/>
 </g>
</svg>
