<?xml version="1.0" encoding="UTF-8"?>
<!--Generator: Apple Native CoreSVG 326-->
<!DOCTYPE svg
PUBLIC "-//W3C//DTD SVG 1.1//EN"
       "http://www.w3.org/Graphics/SVG/1.1/DTD/svg11.dtd">
<svg version="1.1" xmlns="http://www.w3.org/2000/svg" xmlns:xlink="http://www.w3.org/1999/xlink" viewBox="0 0 38.6037 27.6084">
 <g>
  <rect height="27.6084" opacity="0" width="38.6037" x="0" y="0"/>
  <path d="M2.50936 11.6377C2.84139 11.9531 3.30624 11.9531 3.62167 11.6211C7.70565 7.28809 13.0846 4.99707 19.1109 4.99707C25.1705 4.99707 30.5826 7.30469 34.6334 11.6377C34.9322 11.9365 35.3805 11.9199 35.7125 11.6045L38.0035 9.31348C38.3023 9.01465 38.2857 8.64941 38.0533 8.36719C34.1519 3.55273 26.8141 0.0166016 19.1109 0.0166016C11.4244 0.0166016 4.05331 3.55273 0.168543 8.36719C-0.0638785 8.64941-0.0638785 9.01465 0.218348 9.31348Z" fill="white" fill-opacity="0.85"/>
  <path d="M9.39901 18.5771C9.76425 18.9258 10.2125 18.876 10.5445 18.5107C12.5367 16.3027 15.7906 14.6924 19.1109 14.709C22.4644 14.6924 25.7183 16.3525 27.7437 18.5605C28.0426 18.9092 28.4576 18.8926 28.8228 18.5605L31.3961 16.0039C31.6617 15.7383 31.6949 15.373 31.4459 15.0742C28.9391 12.0029 24.2906 9.69531 19.1109 9.69531C13.9312 9.69531 9.2828 12.0029 6.77597 15.0742C6.52694 15.373 6.54354 15.7051 6.82577 16.0039Z" fill="white" fill-opacity="0.85"/>
  <path d="M19.1109 27.6084C19.4762 27.6084 19.7916 27.4424 20.4391 26.8115L24.4898 22.9268C24.7389 22.6777 24.8053 22.3125 24.5728 22.0137C23.4937 20.6191 21.4517 19.4072 19.1109 19.4072C16.7037 19.4072 14.6617 20.6689 13.5826 22.1133C13.4166 22.3789 13.483 22.6777 13.7486 22.9268L17.7828 26.8115C18.4303 27.4258 18.7457 27.6084 19.1109 27.6084Z" fill="white" fill-opacity="0.85"/>
 </g>
</svg>
