<?xml version="1.0" encoding="UTF-8"?>
<!--Generator: Apple Native CoreSVG 326-->
<!DOCTYPE svg
PUBLIC "-//W3C//DTD SVG 1.1//EN"
       "http://www.w3.org/Graphics/SVG/1.1/DTD/svg11.dtd">
<svg version="1.1" xmlns="http://www.w3.org/2000/svg" xmlns:xlink="http://www.w3.org/1999/xlink" viewBox="0 0 38.6037 36.208">
 <g>
  <rect height="36.208" opacity="0" width="38.6037" x="0" y="0"/>
  <path d="M31.4459 19.374C31.6949 19.6729 31.6617 20.0381 31.3961 20.3037L28.8228 22.8604C28.4576 23.1924 28.0426 23.209 27.7437 22.8604C26.5475 21.5563 24.9228 20.4433 23.1005 19.7576L23.1435 14.4711C26.6374 15.2925 29.6137 17.1293 31.4459 19.374ZM15.1495 19.7395C13.3375 20.4111 11.721 21.5066 10.5445 22.8105C10.2125 23.1758 9.76425 23.2256 9.39901 22.877L6.82577 20.3037C6.54354 20.0049 6.52694 19.6729 6.77597 19.374C8.61147 17.1252 11.5951 15.2858 15.0971 14.4664Z" fill="white" fill-opacity="0.85"/>
  <path d="M15.0496 9.67431C10.6678 10.4647 6.76192 12.5892 3.62167 15.9209C3.30624 16.2529 2.84139 16.2529 2.50936 15.9375L0.218348 13.6133C-0.0638785 13.3145-0.0638785 12.9492 0.168543 12.667C3.35221 8.72142 8.87738 5.6344 14.9997 4.65236ZM38.0533 12.667C38.2857 12.9492 38.3023 13.3145 38.0035 13.6133L35.7125 15.9043C35.3805 16.2197 34.9322 16.2363 34.6334 15.9375C31.5159 12.6028 27.5921 10.4677 23.1824 9.67485L23.2232 4.65186C29.3486 5.63321 34.8554 8.72066 38.0533 12.667Z" fill="white" fill-opacity="0.85"/>
  <path d="M19.1109 31.9082C20.5221 31.9082 21.6344 30.7627 21.6344 29.3682C21.6344 27.957 20.5221 26.8447 19.1109 26.8447C17.7164 26.8447 16.5875 27.957 16.5875 29.3682C16.5875 30.7627 17.7164 31.9082 19.1109 31.9082ZM19.1275 23.9062C20.0074 23.9062 20.6051 23.3252 20.6217 22.4121C20.6715 16.3027 20.7213 10.1602 20.7711 4.03418C20.7711 3.08789 20.0074 2.44043 19.1109 2.44043C18.2144 2.44043 17.4508 3.08789 17.4508 4.03418C17.5172 10.1602 17.567 16.3027 17.6334 22.4121C17.65 23.3252 18.2476 23.9062 19.1275 23.9062Z" fill="white" fill-opacity="0.85"/>
 </g>
</svg>
