<?xml version="1.0" encoding="UTF-8"?>
<!--Generator: Apple Native CoreSVG 326-->
<!DOCTYPE svg
PUBLIC "-//W3C//DTD SVG 1.1//EN"
       "http://www.w3.org/Graphics/SVG/1.1/DTD/svg11.dtd">
<svg version="1.1" xmlns="http://www.w3.org/2000/svg" xmlns:xlink="http://www.w3.org/1999/xlink" viewBox="0 0 38.6037 39.4412">
 <g>
  <rect height="39.4412" opacity="0" width="38.6037" x="0" y="0"/>
  <path d="M10.8444 12.5249C8.15169 13.6299 5.71635 15.3151 3.62167 17.5375C3.30624 17.8695 2.84139 17.8695 2.50936 17.5541L0.218348 15.2299C-0.0638785 14.931-0.0638785 14.5658 0.168543 14.2836C1.89566 12.1431 4.31188 10.2554 7.14093 8.8214ZM38.0533 14.2836C38.2857 14.5658 38.3023 14.931 38.0035 15.2299L35.7125 17.5209C35.3805 17.8363 34.9322 17.8529 34.6334 17.5541C30.5826 13.2211 25.1705 10.9135 19.1109 10.9135C18.8592 10.9135 18.6086 10.9175 18.3664 10.9492L13.8927 6.47556C15.5879 6.12047 17.341 5.93299 19.1109 5.93299C26.8141 5.93299 34.1519 9.46913 38.0533 14.2836Z" fill="white" fill-opacity="0.85"/>
  <path d="M18.949 20.6295C15.685 20.6614 12.5043 22.2551 10.5445 24.4271C10.2125 24.7924 9.76425 24.8422 9.39901 24.4935L6.82577 21.9203C6.54354 21.6215 6.52694 21.2894 6.77597 20.9906C8.51357 18.8618 11.2801 17.0998 14.5403 16.2207ZM31.4459 20.9906C31.6949 21.2894 31.6617 21.6547 31.3961 21.9203L30.3635 22.9463L23.6236 16.2064C26.9092 17.0791 29.6981 18.8493 31.4459 20.9906Z" fill="white" fill-opacity="0.85"/>
  <path d="M24.5728 27.9301C24.8053 28.2289 24.7389 28.5941 24.4898 28.8431L20.4391 32.7279C19.7916 33.3588 19.4762 33.5248 19.1109 33.5248C18.7457 33.5248 18.4303 33.3422 17.7828 32.7279L13.7486 28.8431C13.483 28.5941 13.4166 28.2953 13.5826 28.0297C14.6617 26.5853 16.7037 25.3236 19.1109 25.3236C21.4517 25.3236 23.4937 26.5355 24.5728 27.9301Z" fill="white" fill-opacity="0.85"/>
  <path d="M33.106 32.0473C33.6041 32.5453 34.4342 32.5453 34.9156 32.0473C35.3971 31.5326 35.4137 30.7357 34.9156 30.2377L6.99179 2.31385C6.49374 1.81581 5.68026 1.81581 5.16561 2.31385C4.68417 2.7953 4.68417 3.65858 5.16561 4.12342Z" fill="white" fill-opacity="0.85"/>
 </g>
</svg>
